 <svg version="1.0" xmlns="http://www.w3.org/2000/svg"  width="300.000000pt" height="79.000000pt" viewBox="0 0 300.000000 79.000000"  preserveAspectRatio="xMidYMid meet">  <g transform="translate(0.000000,79.000000) scale(0.100000,-0.100000)" fill="#60A5FA" stroke="none"> <path d="M1334 751 c-17 -11 -45 -39 -61 -63 -21 -32 -36 -44 -58 -46 -38 -3 -72 -21 -79 -39 -3 -8 -9 -51 -12 -96 -4 -45 -8 -84 -10 -85 -1 -2 -19 2 -38 9 -29 10 -46 11 -80 1 -24 -6 -60 -9 -80 -5 -29 5 -42 1 -60 -16 l-23 -21 -18 20 c-23 25 -76 26 -98 2 -13 -14 -17 -38 -17 -96 0 -87 -20 -146 -50 -146 -34 0 -44 28 -45 125 0 85 -3 96 -25 119 -28 31 -50 33 -80 8 -20 -16 -22 -28 -24 -115 -2 -53 -6 -100 -9 -104 -4 -3 -18 0 -32 7 -23 12 -31 11 -79 -13 -72 -36 -108 -35 -151 6 -60 55 -53 149 14 194 44 30 87 29 145 -2 50 -27 65 -25 100 14 28 30 6 74 -53 109 -40 24 -56 27 -131 27 -68 0 -93 -5 -126 -22 -86 -46 -127 -122 -126 -236 0 -86 38 -158 108 -204 47 -31 64 -37 129 -41 62 -4 82 -1 121 17 25 12 57 34 70 48 l24 25 36 -36 c44 -44 101 -61 158 -48 23 5 59 7 82 5 29 -3 44 0 53 11 17 20 35 20 51 1 18 -22 73 -19 95 5 14 16 17 35 16 98 -3 104 8 129 56 138 21 3 48 13 61 20 21 14 22 13 22 -23 0 -21 -5 -78 -10 -127 -10 -87 -10 -91 13 -113 23 -23 25 -23 288 -26 210 -2 269 1 282 11 9 8 25 11 36 7 36 -11 245 -9 268 3 16 9 29 9 55 -2 18 -7 40 -11 48 -8 17 6 46 43 42 55 -1 4 3 7 8 7 6 0 10 -6 10 -13 0 -22 34 -47 63 -47 53 0 67 29 67 138 0 63 4 102 12 110 15 15 64 16 73 1 4 -6 8 -55 9 -109 1 -79 4 -102 19 -118 26 -28 62 -33 86 -11 25 23 27 23 57 0 41 -32 84 -7 101 59 l10 35 29 -30 c42 -44 98 -85 117 -85 9 0 28 10 43 23 32 28 29 37 -41 118 -25 29 -45 59 -45 67 0 8 20 37 45 64 51 56 57 90 22 113 -36 23 -89 3 -141 -54 -11 -12 -23 -21 -28 -21 -4 0 -8 33 -8 73 0 82 -13 115 -53 137 -27 14 -29 14 -53 -13 -21 -25 -24 -37 -24 -113 0 -46 -4 -84 -9 -84 -5 0 -19 14 -31 30 -34 47 -74 63 -139 56 -81 -10 -94 -10 -113 -2 -13 6 -26 -1 -49 -23 -29 -30 -32 -31 -45 -14 -17 23 -17 33 1 57 8 11 15 28 15 37 0 29 -43 72 -73 72 -67 0 -106 -72 -61 -114 22 -20 22 -23 8 -51 -9 -16 -15 -48 -14 -71 1 -23 1 -68 1 -99 l-1 -57 -82 6 c-46 3 -86 11 -91 17 -4 6 -6 80 -5 164 2 146 1 153 -20 175 -15 15 -35 22 -59 22 -32 0 -38 4 -45 30 -10 39 -33 55 -79 55 -34 0 -40 4 -60 40 -47 84 -151 116 -225 71z m137 -26 c33 -18 69 -69 69 -100 0 -18 6 -20 65 -17 l65 4 0 -204 c0 -111 3 -233 7 -270 l6 -68 -280 0 -279 0 7 83 c15 170 29 373 29 415 l0 42 65 0 c59 0 65 2 65 20 0 82 102 135 181 95z m627 -197 c19 -19 15 -66 -8 -78 -45 -24 -102 37 -70 76 15 17 61 19 78 2z m-308 -193 l0 -195 95 0 95 0 0 -30 0 -30 -124 0 -123 0 -7 38 c-6 41 -8 396 -2 403 3 2 18 5 35 6 l31 2 0 -194z m810 60 c0 -74 3 -135 8 -135 4 0 39 32 77 70 58 58 75 70 102 70 18 0 33 -4 33 -8 0 -4 -30 -38 -66 -74 l-67 -67 76 -83 76 -83 -35 -3 c-32 -3 -40 3 -102 68 -84 90 -102 89 -102 -6 l0 -64 -30 0 -30 0 0 225 0 225 30 0 30 0 0 -135z m-2247 114 c21 -5 52 -23 70 -39 l32 -29 -22 -22 -23 -23 -23 22 c-71 67 -196 41 -243 -50 -18 -35 -18 -121 1 -158 42 -81 167 -100 235 -35 l26 25 25 -26 24 -26 -35 -29 c-64 -54 -154 -64 -235 -25 -87 41 -125 103 -125 203 1 159 135 256 293 212z m219 -225 c3 -130 13 -148 74 -148 28 0 42 7 60 28 22 25 24 36 24 132 l0 104 34 0 33 0 2 -160 2 -160 -37 0 c-34 0 -36 1 -29 28 l7 27 -31 -29 c-55 -53 -150 -36 -185 33 -10 19 -15 63 -16 142 -1 63 -1 117 -1 120 1 3 14 4 30 1 l29 -4 4 -114z m508 96 c0 -27 -3 -30 -29 -30 -37 0 -73 -13 -94 -35 -14 -13 -17 -37 -17 -126 l0 -109 -36 0 -35 0 3 160 c3 158 3 160 25 160 18 0 23 -6 23 -25 0 -27 14 -34 23 -12 7 20 67 47 105 47 29 0 32 -3 32 -30z m1354 -9 l31 -31 3 -130 4 -130 -31 0 -31 0 0 115 c0 102 -2 117 -20 135 -34 34 -111 20 -142 -24 -4 -6 -8 -59 -8 -118 l0 -108 -28 0 -28 0 0 160 0 160 23 0 c16 0 23 -6 23 -20 0 -19 2 -18 48 6 61 33 112 28 156 -15z m-334 -131 l0 -160 -30 0 -30 0 0 160 0 160 30 0 30 0 0 -160z m49 -7 c-1 -39 -3 -50 -8 -34 -6 24 -3 91 5 91 2 0 4 -26 3 -57z"/> <path d="M1361 666 c-18 -19 -23 -38 -27 -102 -4 -74 -14 -98 -39 -91 -5 2 -11 22 -13 45 -3 41 -4 42 -38 42 l-34 0 0 -147 c0 -82 -3 -178 -7 -215 l-6 -68 213 0 213 0 -7 46 c-3 26 -6 122 -6 213 l0 166 -36 1 c-35 1 -36 0 -31 -32 6 -37 -11 -58 -37 -48 -11 4 -16 19 -16 48 l0 41 -65 -3 c-64 -4 -65 -3 -65 22 0 25 2 26 59 26 38 0 61 -4 64 -12 3 -7 6 -1 6 13 2 69 -81 105 -128 55z m104 -179 c22 -35 65 -48 91 -26 22 18 25 8 22 -71 l-3 -72 -24 21 c-14 12 -34 24 -45 27 -12 3 -29 23 -39 45 -16 34 -23 39 -52 39 -25 0 -40 -8 -59 -31 -14 -17 -26 -35 -26 -40 0 -5 -11 -11 -25 -15 -13 -3 -30 -13 -37 -22 -11 -13 -14 -9 -18 29 -3 24 -3 56 -1 71 3 27 4 27 33 12 29 -15 30 -15 66 25 48 52 88 55 117 8z m-25 -112 l0 -45 45 0 c45 0 45 0 45 -35 0 -35 0 -35 -45 -35 l-45 0 6 -40 7 -40 -37 0 c-35 0 -36 1 -36 40 l0 40 -50 0 c-43 0 -50 3 -50 19 0 41 11 51 57 51 l45 0 -2 38 c-3 53 -3 52 30 52 29 0 30 -2 30 -45z m-129 -150 c31 -8 57 -53 35 -61 -8 -3 -33 -4 -57 -2 -42 3 -44 5 -47 36 -2 19 -1 41 3 49 5 14 7 14 23 0 9 -8 29 -18 43 -22z m269 -9 c0 -31 -5 -46 -16 -50 -22 -8 -82 -7 -87 2 -8 13 12 52 27 52 7 0 24 9 37 20 34 28 39 25 39 -24z"/> </g> </svg> 